{
	"asset":{
		"generator":"Khronos glTF Blender I/O v3.6.27",
		"version":"2.0"
	},
	"scene":0,
	"scenes":[
		{
			"name":"Scene",
			"nodes":[
				0,
				1,
				2,
				3,
				4,
				5,
				6,
				7,
				8,
				9,
				10,
				11,
				12,
				13
			]
		}
	],
	"nodes":[
		{
			"mesh":0,
			"name":"Cube",
			"scale":[
				3.005000114440918,
				4,
				3.005000114440918
			],
			"translation":[
				0,
				13.85275650024414,
				0
			]
		},
		{
			"name":"BezierCircle",
			"rotation":[
				0.70710688829422,
				0,
				0,
				0.7071066498756409
			]
		},
		{
			"name":"BezierCircle.001",
			"rotation":[
				0.70710688829422,
				0,
				0,
				0.7071066498756409
			]
		},
		{
			"name":"BezierCurve",
			"rotation":[
				0.70710688829422,
				0,
				0,
				0.7071066498756409
			],
			"translation":[
				0,
				-0.1551179587841034,
				0
			]
		},
		{
			"name":"BezierCurve.001",
			"rotation":[
				0.70710688829422,
				0,
				0,
				0.7071066498756409
			],
			"translation":[
				0,
				5.026635646820068,
				0
			]
		},
		{
			"mesh":1,
			"name":"Plane",
			"rotation":[
				0.70710688829422,
				0,
				0,
				0.7071066498756409
			],
			"translation":[
				2.627009153366089,
				12.947680473327637,
				0.024732517078518867
			]
		},
		{
			"mesh":2,
			"name":"Plane.001",
			"rotation":[
				0.70710688829422,
				0,
				0,
				0.7071066498756409
			],
			"translation":[
				1.8891628980636597,
				10.24255657196045,
				2.110004425048828e-05
			]
		},
		{
			"name":"BezierCurve.002",
			"rotation":[
				0.70710688829422,
				0,
				0,
				0.7071066498756409
			],
			"translation":[
				3.8095614910125732,
				8.451730728149414,
				0.033118754625320435
			]
		},
		{
			"name":"BezierCurve.003",
			"rotation":[
				1,
				0,
				0,
				0
			],
			"scale":[
				-1,
				-1,
				-1
			],
			"translation":[
				-3.8095614910125732,
				8.451730728149414,
				0.03311876207590103
			]
		},
		{
			"mesh":3,
			"name":"Plane.002",
			"rotation":[
				0,
				0.3826834559440613,
				0,
				0.9238795638084412
			]
		},
		{
			"mesh":4,
			"name":"Plane.004",
			"rotation":[
				0,
				0.9238795638084412,
				0,
				0.3826834559440613
			]
		},
		{
			"mesh":5,
			"name":"Plane.007",
			"rotation":[
				0,
				-0.38268348574638367,
				0,
				0.9238795042037964
			]
		},
		{
			"name":"BezierCurve.004",
			"rotation":[
				0.70710688829422,
				0,
				0,
				0.7071066498756409
			],
			"scale":[
				0.699999988079071,
				0.699999988079071,
				0.699999988079071
			],
			"translation":[
				1.95477294921875,
				10.62314510345459,
				0.10000014305114746
			]
		},
		{
			"mesh":6,
			"name":"Plane.005",
			"rotation":[
				0,
				-0.9238795638084412,
				0,
				0.3826833963394165
			]
		}
	],
	"materials":[
		{
			"doubleSided":true,
			"name":"DIAMOND",
			"pbrMetallicRoughness":{}
		},
		{
			"doubleSided":true,
			"name":"GOLD",
			"pbrMetallicRoughness":{
				"baseColorFactor":[
					0.799102783203125,
					0.4780484437942505,
					0.11243803799152374,
					1
				],
				"roughnessFactor":0
			}
		}
	],
	"meshes":[
		{
			"name":"Cube",
			"primitives":[
				{
					"attributes":{
						"POSITION":0,
						"NORMAL":1,
						"TEXCOORD_0":2
					},
					"indices":3,
					"material":0
				}
			]
		},
		{
			"name":"Plane",
			"primitives":[
				{
					"attributes":{
						"POSITION":4,
						"NORMAL":5,
						"TEXCOORD_0":6
					},
					"indices":7,
					"material":1
				}
			]
		},
		{
			"name":"Plane.001",
			"primitives":[
				{
					"attributes":{
						"POSITION":8,
						"NORMAL":9,
						"TEXCOORD_0":10
					},
					"indices":11,
					"material":1
				}
			]
		},
		{
			"name":"Plane.002",
			"primitives":[
				{
					"attributes":{
						"POSITION":12,
						"NORMAL":13,
						"TEXCOORD_0":14
					},
					"indices":15,
					"material":1
				}
			]
		},
		{
			"name":"Plane.004",
			"primitives":[
				{
					"attributes":{
						"POSITION":16,
						"NORMAL":17,
						"TEXCOORD_0":18
					},
					"indices":15,
					"material":1
				}
			]
		},
		{
			"name":"Plane.007",
			"primitives":[
				{
					"attributes":{
						"POSITION":19,
						"NORMAL":20,
						"TEXCOORD_0":21
					},
					"indices":15,
					"material":1
				}
			]
		},
		{
			"name":"Plane.009",
			"primitives":[
				{
					"attributes":{
						"POSITION":22,
						"NORMAL":23,
						"TEXCOORD_0":24
					},
					"indices":15,
					"material":1
				}
			]
		}
	],
	"accessors":[
		{
			"bufferView":0,
			"componentType":5126,
			"count":521,
			"max":[
				1,
				0.2315981090068817,
				1
			],
			"min":[
				-1,
				-0.8863235712051392,
				-1
			],
			"type":"VEC3"
		},
		{
			"bufferView":1,
			"componentType":5126,
			"count":521,
			"type":"VEC3"
		},
		{
			"bufferView":2,
			"componentType":5126,
			"count":521,
			"type":"VEC2"
		},
		{
			"bufferView":3,
			"componentType":5123,
			"count":816,
			"type":"SCALAR"
		},
		{
			"bufferView":4,
			"componentType":5126,
			"count":1800,
			"max":[
				0.9210138320922852,
				3.5219202041625977,
				1.1142263412475586
			],
			"min":[
				-6.167967796325684,
				-3.5697994232177734,
				-0.2841978073120117
			],
			"type":"VEC3"
		},
		{
			"bufferView":5,
			"componentType":5126,
			"count":1800,
			"type":"VEC3"
		},
		{
			"bufferView":6,
			"componentType":5126,
			"count":1800,
			"type":"VEC2"
		},
		{
			"bufferView":7,
			"componentType":5123,
			"count":2700,
			"type":"SCALAR"
		},
		{
			"bufferView":8,
			"componentType":5126,
			"count":360,
			"max":[
				-0.0623832643032074,
				1.8256456851959229,
				0.3147065341472626
			],
			"min":[
				-3.711493968963623,
				-1.8256868124008179,
				-0.47988107800483704
			],
			"type":"VEC3"
		},
		{
			"bufferView":9,
			"componentType":5126,
			"count":360,
			"type":"VEC3"
		},
		{
			"bufferView":10,
			"componentType":5126,
			"count":360,
			"type":"VEC2"
		},
		{
			"bufferView":11,
			"componentType":5123,
			"count":2160,
			"type":"SCALAR"
		},
		{
			"bufferView":12,
			"componentType":5126,
			"count":418,
			"max":[
				0.6111619472503662,
				14.263385772705078,
				-1.4282457828521729
			],
			"min":[
				-0.6111618280410767,
				10.231233596801758,
				-3.854379177093506
			],
			"type":"VEC3"
		},
		{
			"bufferView":13,
			"componentType":5126,
			"count":418,
			"type":"VEC3"
		},
		{
			"bufferView":14,
			"componentType":5126,
			"count":418,
			"type":"VEC2"
		},
		{
			"bufferView":15,
			"componentType":5123,
			"count":2496,
			"type":"SCALAR"
		},
		{
			"bufferView":16,
			"componentType":5126,
			"count":418,
			"max":[
				0.6111619472503662,
				14.263385772705078,
				-1.4282457828521729
			],
			"min":[
				-0.6111618280410767,
				10.231233596801758,
				-3.854379177093506
			],
			"type":"VEC3"
		},
		{
			"bufferView":17,
			"componentType":5126,
			"count":418,
			"type":"VEC3"
		},
		{
			"bufferView":18,
			"componentType":5126,
			"count":418,
			"type":"VEC2"
		},
		{
			"bufferView":19,
			"componentType":5126,
			"count":418,
			"max":[
				0.6111619472503662,
				14.263385772705078,
				-1.4282457828521729
			],
			"min":[
				-0.6111618280410767,
				10.231233596801758,
				-3.854379177093506
			],
			"type":"VEC3"
		},
		{
			"bufferView":20,
			"componentType":5126,
			"count":418,
			"type":"VEC3"
		},
		{
			"bufferView":21,
			"componentType":5126,
			"count":418,
			"type":"VEC2"
		},
		{
			"bufferView":22,
			"componentType":5126,
			"count":418,
			"max":[
				0.6111619472503662,
				14.263385772705078,
				-1.4282457828521729
			],
			"min":[
				-0.6111618280410767,
				10.231233596801758,
				-3.854379177093506
			],
			"type":"VEC3"
		},
		{
			"bufferView":23,
			"componentType":5126,
			"count":418,
			"type":"VEC3"
		},
		{
			"bufferView":24,
			"componentType":5126,
			"count":418,
			"type":"VEC2"
		}
	],
	"bufferViews":[
		{
			"buffer":0,
			"byteLength":6252,
			"byteOffset":0,
			"target":34962
		},
		{
			"buffer":0,
			"byteLength":6252,
			"byteOffset":6252,
			"target":34962
		},
		{
			"buffer":0,
			"byteLength":4168,
			"byteOffset":12504,
			"target":34962
		},
		{
			"buffer":0,
			"byteLength":1632,
			"byteOffset":16672,
			"target":34963
		},
		{
			"buffer":0,
			"byteLength":21600,
			"byteOffset":18304,
			"target":34962
		},
		{
			"buffer":0,
			"byteLength":21600,
			"byteOffset":39904,
			"target":34962
		},
		{
			"buffer":0,
			"byteLength":14400,
			"byteOffset":61504,
			"target":34962
		},
		{
			"buffer":0,
			"byteLength":5400,
			"byteOffset":75904,
			"target":34963
		},
		{
			"buffer":0,
			"byteLength":4320,
			"byteOffset":81304,
			"target":34962
		},
		{
			"buffer":0,
			"byteLength":4320,
			"byteOffset":85624,
			"target":34962
		},
		{
			"buffer":0,
			"byteLength":2880,
			"byteOffset":89944,
			"target":34962
		},
		{
			"buffer":0,
			"byteLength":4320,
			"byteOffset":92824,
			"target":34963
		},
		{
			"buffer":0,
			"byteLength":5016,
			"byteOffset":97144,
			"target":34962
		},
		{
			"buffer":0,
			"byteLength":5016,
			"byteOffset":102160,
			"target":34962
		},
		{
			"buffer":0,
			"byteLength":3344,
			"byteOffset":107176,
			"target":34962
		},
		{
			"buffer":0,
			"byteLength":4992,
			"byteOffset":110520,
			"target":34963
		},
		{
			"buffer":0,
			"byteLength":5016,
			"byteOffset":115512,
			"target":34962
		},
		{
			"buffer":0,
			"byteLength":5016,
			"byteOffset":120528,
			"target":34962
		},
		{
			"buffer":0,
			"byteLength":3344,
			"byteOffset":125544,
			"target":34962
		},
		{
			"buffer":0,
			"byteLength":5016,
			"byteOffset":128888,
			"target":34962
		},
		{
			"buffer":0,
			"byteLength":5016,
			"byteOffset":133904,
			"target":34962
		},
		{
			"buffer":0,
			"byteLength":3344,
			"byteOffset":138920,
			"target":34962
		},
		{
			"buffer":0,
			"byteLength":5016,
			"byteOffset":142264,
			"target":34962
		},
		{
			"buffer":0,
			"byteLength":5016,
			"byteOffset":147280,
			"target":34962
		},
		{
			"buffer":0,
			"byteLength":3344,
			"byteOffset":152296,
			"target":34962
		}
	],
	"buffers":[
		{
			"byteLength":155640,
			"uri":"data:application/octet-stream;base64,"
		}
	]
}
