{
	"asset":{
		"generator":"Khronos glTF Blender I/O v3.6.27",
		"version":"2.0"
	},
	"scene":0,
	"scenes":[
		{
			"name":"Scene",
			"nodes":[
				0
			]
		}
	],
	"nodes":[
		{
			"mesh":0,
			"name":"Torus.005",
			"rotation":[
				0.9739869236946106,
				-0.015225348062813282,
				0.2257094383239746,
				0.01315312273800373
			],
			"scale":[
				-0.04974967613816261,
				-0.07388558983802795,
				-0.04374568536877632
			],
			"translation":[
				0.010991811752319336,
				-2.6832988262176514,
				2.5517096519470215
			]
		}
	],
	"materials":[
		{
			"doubleSided":true,
			"name":"stainless",
			"pbrMetallicRoughness":{
				"baseColorTexture":{
					"index":0
				},
				"metallicFactor":0.8999999761581421,
				"roughnessFactor":0.8920454978942871
			}
		}
	],
	"meshes":[
		{
			"name":"Torus.005",
			"primitives":[
				{
					"attributes":{
						"POSITION":0,
						"NORMAL":1,
						"TEXCOORD_0":2
					},
					"indices":3,
					"material":0
				}
			]
		}
	],
	"textures":[
		{
			"sampler":0,
			"source":0
		}
	],
	"images":[
		{
			"mimeType":"image/jpeg",
			"name":"stainless steel",
			"uri":"assets/textures/stainless%20steel.jpg"
		}
	],
	"accessors":[
		{
			"bufferView":0,
			"componentType":5126,
			"count":282278,
			"max":[
				18.241737365722656,
				36.41060256958008,
				-7.830436706542969
			],
			"min":[
				-5.590324401855469,
				7.163721084594727,
				-21.08975601196289
			],
			"type":"VEC3"
		},
		{
			"bufferView":1,
			"componentType":5126,
			"count":282278,
			"type":"VEC3"
		},
		{
			"bufferView":2,
			"componentType":5126,
			"count":282278,
			"type":"VEC2"
		},
		{
			"bufferView":3,
			"componentType":5125,
			"count":343464,
			"type":"SCALAR"
		}
	],
	"bufferViews":[
		{
			"buffer":0,
			"byteLength":3387336,
			"byteOffset":0,
			"target":34962
		},
		{
			"buffer":0,
			"byteLength":3387336,
			"byteOffset":3387336,
			"target":34962
		},
		{
			"buffer":0,
			"byteLength":2258224,
			"byteOffset":6774672,
			"target":34962
		},
		{
			"buffer":0,
			"byteLength":1373856,
			"byteOffset":9032896,
			"target":34963
		}
	],
	"samplers":[
		{
			"magFilter":9729,
			"minFilter":9987
		}
	],
	"buffers":[
		{
			"byteLength":10406752,
			"uri":"pendant24.bin"
		}
	]
}
